<?xml version="1.0" encoding="UTF-8" standalone="no"?>
<svg
   xmlns:dc="http://purl.org/dc/elements/1.1/"
   xmlns:cc="http://creativecommons.org/ns#"
   xmlns:rdf="http://www.w3.org/1999/02/22-rdf-syntax-ns#"
   xmlns:svg="http://www.w3.org/2000/svg"
   xmlns="http://www.w3.org/2000/svg"
   xmlns:sodipodi="http://sodipodi.sourceforge.net/DTD/sodipodi-0.dtd"
   xmlns:inkscape="http://www.inkscape.org/namespaces/inkscape"
   height="69.613274"
   id="svg2"
   version="1.1"
   width="70"
   sodipodi:docname="error.svg"
   inkscape:export-filename="C:\Users\dba-04\Desktop\err_disco.png"
   inkscape:export-xdpi="96"
   inkscape:export-ydpi="96"
   inkscape:version="0.92.1 r15371">
  <metadata
     id="metadata19">
    <rdf:RDF>
      <cc:Work
         rdf:about="">
        <dc:format>image/svg+xml</dc:format>
        <dc:type
           rdf:resource="http://purl.org/dc/dcmitype/StillImage" />
        <dc:title></dc:title>
      </cc:Work>
    </rdf:RDF>
  </metadata>
  <sodipodi:namedview
     pagecolor="#ffffff"
     bordercolor="#666666"
     borderopacity="1"
     objecttolerance="10"
     gridtolerance="10"
     guidetolerance="10"
     inkscape:pageopacity="0"
     inkscape:pageshadow="2"
     inkscape:window-width="1920"
     inkscape:window-height="1017"
     id="namedview17"
     showgrid="false"
     inkscape:pagecheckerboard="true"
     fit-margin-top="0"
     fit-margin-left="0"
     fit-margin-right="0"
     fit-margin-bottom="0"
     inkscape:zoom="2.8284271"
     inkscape:cx="157.68838"
     inkscape:cy="41.867265"
     inkscape:window-x="-8"
     inkscape:window-y="-8"
     inkscape:window-maximized="1"
     inkscape:current-layer="layer15" />
  <defs
     id="defs4">
    <clipPath
       clipPathUnits="userSpaceOnUse"
       id="clipPath18">
      <path
         d="M 0,551.986 H 530.973 V 0 H 0 Z"
         id="path20"
         inkscape:connector-curvature="0" />
    </clipPath>
    <clipPath
       clipPathUnits="userSpaceOnUse"
       id="clipPath18-7">
      <path
         d="M 0,551.986 H 530.973 V 0 H 0 Z"
         id="path20-4"
         inkscape:connector-curvature="0" />
    </clipPath>
  </defs>
  <g
     id="layer1"
     style="display:inline"
     transform="matrix(0.38674033,0,0,0.38674033,-3.9723764,-333.51023)"
     inkscape:export-xdpi="25.599998"
     inkscape:export-ydpi="25.599998">
    <path
       d="m 100,10 c -49.70563,0 -90,40.29437 -90,90 0,49.70572 40.29437,90 90,90 0.75044,0 1.47964,-0.084 2.21875,-0.125 0.26003,-0.014 0.52093,-0.0182 0.78125,-0.0312 0.93792,-0.046 1.87645,-0.096 2.8125,-0.15625 0.96378,-0.062 1.89076,-0.24545 2.84375,-0.34375 2.0633,-0.2128 4.13392,-0.4029 6.15625,-0.75 0.78624,-0.13493 1.53236,-0.37838 2.3125,-0.53125 2.60227,-0.50991 5.20544,-1.02204 7.71875,-1.75 5.67307,-1.6433 11.11833,-3.782 16.28125,-6.4375 18.08925,-9.3041 32.44221,-24.61048 40.78125,-43.21875 0.0631,-0.14086 0.15632,-0.26501 0.21875,-0.40625 1.70139,-3.84911 3.2178,-7.79522 4.375,-11.90625 0.46009,-1.63449 0.77841,-3.32241 1.125,-5 0.16252,-0.78665 0.37485,-1.55459 0.53125,-2.34375 0.1628,-0.82145 0.4264,-1.606 0.5625,-2.4375 0.31126,-1.90166 0.40556,-3.87224 0.59375,-5.8125 0.17397,-1.79362 0.45022,-3.55437 0.53125,-5.375 0.05,-1.12451 0.15625,-2.23807 0.15625,-3.375 0,-3.65022 -0.29637,-7.21352 -0.71875,-10.75 -0.0857,-0.71775 -0.24127,-1.41252 -0.34375,-2.125 C 182.66932,43.54488 145.31458,10 100,10 Z"
       id="path7037"
       style="fill:#bd081c;fill-opacity:1;stroke:none"
       transform="translate(0,852.36218)"
       inkscape:connector-curvature="0" />
    <path
       d=""
       id="path6013"
       style="fill:#000000"
       inkscape:connector-curvature="0" />
    <path
       d=""
       id="path6011"
       style="fill:#000000"
       inkscape:connector-curvature="0" />
    <path
       d=""
       id="path6009"
       style="fill:#000000"
       inkscape:connector-curvature="0" />
  </g>
  <g
     id="layer16"
     style="display:inline"
     transform="translate(-9.0000011,-120.38675)" />
  <g
     id="layer15"
     style="display:inline"
     transform="matrix(0.38674033,0,0,0.38674033,-3.480663,-3.8674031)">
    <text
       xml:space="preserve"
       style="font-style:normal;font-weight:normal;font-size:35.6999054px;line-height:1.25;font-family:sans-serif;letter-spacing:0px;word-spacing:0px;fill:#000000;fill-opacity:1;stroke:none;stroke-width:0.8924976"
       x="26.394426"
       y="156.89674"
       id="text3811"><tspan
         sodipodi:role="line"
         id="tspan3809"
         x="26.394426"
         y="156.89674"
         style="font-style:normal;font-variant:normal;font-weight:normal;font-stretch:normal;font-size:171.35954285px;font-family:'Rage Italic';-inkscape-font-specification:'Rage Italic, ';fill:#ffffff;stroke-width:0.8924976">D</tspan></text>
    <path
       d="m 97.185701,10.000014 c -49.70562,0 -89.9999876,40.29437 -89.9999876,90.000006 0,49.70566 40.2943686,90 89.9999876,90 z"
       id="rect2995"
       style="display:inline;opacity:0.15;fill:#ffffff;fill-opacity:1;fill-rule:nonzero;stroke:none"
       inkscape:connector-curvature="0" />
    <flowRoot
       xml:space="preserve"
       id="flowRoot3823"
       style="fill:black;fill-opacity:1;stroke:none;font-family:sans-serif;font-style:normal;font-weight:normal;font-size:40px;line-height:1.25;letter-spacing:0px;word-spacing:0px"><flowRegion
         id="flowRegion3825"><rect
           id="rect3827"
           width="213.19269"
           height="144.24979"
           x="-51.618793"
           y="-47.766453" /></flowRegion><flowPara
         id="flowPara3829"></flowPara></flowRoot>  </g>
  <flowRoot
     xml:space="preserve"
     id="flowRoot3815"
     style="fill:black;fill-opacity:1;stroke:none;font-family:sans-serif;font-style:normal;font-weight:normal;font-size:40px;line-height:1.25;letter-spacing:0px;word-spacing:0px"><flowRegion
       id="flowRegion3817"><rect
         id="rect3819"
         width="164.04877"
         height="161.92746"
         x="-46.669048"
         y="-29.735229" /></flowRegion><flowPara
       id="flowPara3821"></flowPara></flowRoot></svg>
